<?xml version="1.0" encoding="utf-8"?>
<!-- Generator: Adobe Illustrator 23.0.6, SVG Export Plug-In . SVG Version: 6.00 Build 0)  -->
<svg version="1.1" id="Layer_1" xmlns="http://www.w3.org/2000/svg" xmlns:xlink="http://www.w3.org/1999/xlink" x="0px" y="0px"
	 viewBox="0 0 158.5 165" style="enable-background:new 0 0 158.5 165;" xml:space="preserve">
<style type="text/css">
	.st0{fill-rule:evenodd;clip-rule:evenodd;}
</style>
<g>
	<path d="M23.97,83.26c3.4,1.19,6.49,2.27,9.59,3.35c3.01,1.05,6.02,2.12,9.04,3.14c0.68,0.23,1.08,0.62,1.42,1.26
		c0.89,1.66,1.88,3.26,2.99,5.15C56.6,69.73,66.2,43.31,75.79,16.88c0.61-0.04,1.51-0.1,2.6-0.1c0.65-0.01,1.18,0.01,2.22,0.03
		c1.36,0.03,2.03,0.05,2.84,0.1c0,0,1.34,0.09,2.86,0.28c9.84,1.26,18.33,5.54,18.33,5.54c4.44,2.24,8.6,5.1,12.45,8.6
		c8.98,8.14,14.71,18.19,17.29,30.03c0.06,0.29,0.11,0.59,0.16,0.88c0.01,0.06-0.03,0.12-0.08,0.27c-2.38-0.83-4.75-1.65-7.12-2.48
		c-3.67-1.28-7.33-2.6-11.01-3.84c-0.81-0.28-1.3-0.71-1.71-1.47c-5.46-10.26-13.85-16.9-25.25-20.22
		c7.49,20.58,14.9,40.96,22.38,61.53c6.9-10.16,8.86-21.03,6.15-32.95c9.27,3.33,18.46,6.64,27.84,10.01
		c-0.66,0.25-1.14,0.44-1.63,0.61c-2.63,0.94-5.25,1.9-7.89,2.8c-0.61,0.21-0.78,0.51-0.83,1.12c-2.1,25.79-21.74,46.94-47.22,50.87
		c-27.19,4.2-53.09-11.43-62.01-37.46C25.31,88.57,24.74,86.01,23.97,83.26z M95.66,109.24c0-0.22,0.02-0.33,0-0.42
		c-1.18-3.7-2.35-7.41-3.58-11.09c-0.09-0.27-0.6-0.58-0.92-0.58c-7.75-0.03-15.51-0.02-23.26-0.04c-0.59,0-0.88,0.15-1.06,0.75
		c-0.55,1.81-1.18,3.6-1.77,5.4c-0.65,1.97-1.29,3.95-1.96,5.99C74.06,113.88,84.87,113.87,95.66,109.24z M72.67,80.48
		c4.72,0,9.31,0,14.01,0c-2.24-7.08-4.45-14.09-6.67-21.11c-0.08,0.01-0.16,0.03-0.24,0.04C77.42,66.39,75.07,73.37,72.67,80.48z"/>
	<path d="M40.86,82.78c-9.35-3.29-18.55-6.53-27.96-9.85c0.44-0.19,0.69-0.32,0.94-0.41c2.88-1.03,5.75-2.08,8.64-3.08
		c0.62-0.21,0.85-0.5,0.91-1.18c2.14-24.09,18.82-43.74,42.22-49.77c0.99-0.26,2-0.46,3.13-0.72c-0.07,0.33-0.1,0.58-0.18,0.81
		c-2.09,5.99-4.17,11.99-6.3,17.97c-0.15,0.43-0.61,0.85-1.03,1.08c-10.83,5.86-17.78,14.72-20.6,26.71
		c-1.36,5.75-1.29,11.55,0,17.32C40.71,81.99,40.76,82.32,40.86,82.78z"/>
</g>
<path class="st0" d="M30.81,144.68l-0.57-1.85h-3.81l-0.61,1.85h-3.19l4.51-12.4h2.35l4.51,12.4H30.81z M28.39,136.98l-1.11,3.31
	h2.16L28.39,136.98z"/>
<path class="st0" d="M43.71,143.46c-0.85,0.85-2.06,1.22-3.34,1.22h-4.6v-12.4h4.6c1.29,0,2.49,0.37,3.34,1.22
	c1.45,1.45,1.29,3.03,1.29,4.98C45,140.43,45.15,142.02,43.71,143.46z M41.62,135.69c-0.28-0.42-0.7-0.7-1.46-0.7h-1.34v6.97h1.34
	c0.77,0,1.18-0.28,1.46-0.7c0.24-0.35,0.33-0.68,0.33-2.79C41.95,136.39,41.86,136.04,41.62,135.69z"/>
<polygon class="st0" points="52.55,144.68 50.29,144.68 46.2,132.28 49.35,132.28 51.44,139.21 53.49,132.28 56.66,132.28 "/>
<polygon class="st0" points="58.44,144.68 58.44,132.28 66.87,132.28 66.87,135 61.49,135 61.49,137.07 66.08,137.07 66.08,139.79 
	61.49,139.79 61.49,141.96 66.87,141.96 66.87,144.68 "/>
<polygon class="st0" points="76.57,144.68 72.59,138.45 72.59,144.68 69.55,144.68 69.55,132.28 72.21,132.28 76.18,138.52 
	76.18,132.28 79.23,132.28 79.23,144.68 "/>
<polygon class="st0" points="87.62,135 87.62,144.68 84.57,144.68 84.57,135 81.53,135 81.53,132.28 90.67,132.28 90.67,135 "/>
<path class="st0" d="M97.44,144.78c-2.58,0-4.68-1.74-4.68-4.46v-8.05h3.05v7.98c0,1.15,0.63,1.81,1.64,1.81s1.67-0.66,1.67-1.81
	v-7.98h3.05v8.05C102.16,143.04,100.02,144.78,97.44,144.78L97.44,144.78z"/>
<path class="st0" d="M111.25,144.68l-2.19-4.61h-1.03v4.61h-3.05v-12.4h4.91c2.75,0,4.23,1.95,4.23,3.99c0,1.69-1.04,2.75-2.02,3.24
	l2.68,5.17H111.25z M109.75,135.02h-1.72v2.51h1.72c0.84,0,1.32-0.61,1.32-1.25C111.08,135.62,110.59,135.02,109.75,135.02z"/>
<polygon class="st0" points="116.86,144.68 116.86,132.28 125.28,132.28 125.28,135 119.9,135 119.9,137.07 124.5,137.07 
	124.5,139.79 119.9,139.79 119.9,141.96 125.28,141.96 125.28,144.68 "/>
<path class="st0" d="M131.94,144.78c-1.9,0-3.45-0.35-4.7-1.64l1.95-1.95c0.64,0.64,1.78,0.87,2.77,0.87c1.2,0,1.78-0.4,1.78-1.11
	c0-0.3-0.07-0.54-0.24-0.73c-0.16-0.16-0.42-0.28-0.82-0.33l-1.5-0.21c-1.1-0.16-1.93-0.52-2.49-1.1c-0.57-0.59-0.85-1.43-0.85-2.49
	c0-2.26,1.71-3.92,4.53-3.92c1.78,0,3.12,0.42,4.18,1.48l-1.92,1.92c-0.78-0.78-1.81-0.73-2.35-0.73c-1.06,0-1.5,0.61-1.5,1.15
	c0,0.16,0.05,0.38,0.24,0.57c0.16,0.16,0.42,0.31,0.85,0.37l1.5,0.21c1.11,0.16,1.92,0.51,2.44,1.03c0.66,0.64,0.92,1.57,0.92,2.72
	C136.73,143.41,134.55,144.78,131.94,144.78z"/>
<path class="st0" d="M140.84,130.83c-0.83-0.42-1.71-0.67-2.64-0.8c-0.12,1.37-0.25,2.75-0.39,4.12c0.14,0.05,0.29,0.1,0.43,0.17
	L140.84,130.83z"/>
<g>
	<path d="M67.77,147.12h5.07v1.04l-3.3,4.42h3.4v1.19h-5.42v-1.02l3.32-4.44h-3.08V147.12z"/>
	<path d="M79.16,150.44c0,2.28-0.95,3.43-2.86,3.43c-0.95,0-1.66-0.29-2.15-0.87c-0.48-0.58-0.72-1.43-0.72-2.55
		c0-2.28,0.95-3.42,2.86-3.42c0.93,0,1.64,0.29,2.13,0.86C78.91,148.45,79.16,149.3,79.16,150.44z M77.33,150.44
		c0-0.9-0.08-1.49-0.25-1.79c-0.17-0.3-0.43-0.45-0.79-0.45c-0.36,0-0.62,0.15-0.79,0.45c-0.17,0.3-0.25,0.89-0.25,1.79
		c0,0.88,0.08,1.47,0.25,1.78c0.16,0.31,0.43,0.46,0.79,0.46c0.36,0,0.62-0.15,0.79-0.44C77.25,151.94,77.33,151.35,77.33,150.44z"
		/>
	<path d="M80.3,147.12h1.93l2.03,4.13v-4.13h1.34v6.64h-1.55l-2.41-4.81v4.81H80.3V147.12z"/>
	<path d="M87.02,147.12h4.8v1.14h-3.07v1.54h2.38v1.14h-2.38v1.64h3.07v1.19h-4.8V147.12z"/>
</g>
</svg>
